<?xml version="1.0" standalone="no"?><!DOCTYPE svg PUBLIC "-//W3C//DTD SVG 1.1//EN" "http://www.w3.org/Graphics/SVG/1.1/DTD/svg11.dtd"><svg t="1748449344966" class="icon" viewBox="0 0 1024 1024" version="1.1" xmlns="http://www.w3.org/2000/svg" p-id="43848" xmlns:xlink="http://www.w3.org/1999/xlink" width="200" height="200"><path d="M874.368 286.933333c10.922667-14.250667 27.818667-22.613333 45.781333-22.613333h14.506667l-187.392 245.034667L938.666667 759.594667h-14.506667a57.6 57.6 0 0 1-45.781333-22.613334l-152.576-199.509333-152.618667 199.509333a57.6 57.6 0 0 1-45.738667 22.613334h-14.506666l191.36-250.24-187.349334-245.034667h14.506667c17.92 0 34.858667 8.362667 45.738667 22.613333l148.565333 194.304 148.608-194.304z" p-id="43849"></path><path d="M237.354667 731.562667c82.090667 29.952 167.936-4.010667 211.584-70.272 8.533333-13.013333 22.613333-21.248 38.229333-21.248h10.88c-40.106667 103.978667-158.72 164.522667-271.488 123.946666C140.245333 732.928 85.333333 647.637333 85.333333 555.904V460.8a213.76 213.76 0 0 1 234.069334-212.522667c110.634667 10.368 192.896 107.648 192.896 218.752V537.6H119.509333v18.944c0 76.885333 45.610667 148.693333 117.845334 175.018667z m61.44-450.133334a179.541333 179.541333 0 0 0-179.285334 179.285334V503.466667h358.656v-42.666667a179.541333 179.541333 0 0 0-179.328-179.370667z" p-id="43850"></path></svg>