<?xml version="1.0" standalone="no"?><!DOCTYPE svg PUBLIC "-//W3C//DTD SVG 1.1//EN" "http://www.w3.org/Graphics/SVG/1.1/DTD/svg11.dtd"><svg t="1748450794006" class="icon" viewBox="0 0 1024 1024" version="1.1" xmlns="http://www.w3.org/2000/svg" p-id="66238" xmlns:xlink="http://www.w3.org/1999/xlink" width="200" height="200"><path d="M83.787633 821.886321h-63.960025v108.732043h17.269206v-46.051218h46.690819a25.58401 25.58401 0 0 0 16.629606-5.116802 18.548407 18.548407 0 0 0 5.756402-14.710806v-23.025609c0-8.954403-3.837601-19.827608-22.386008-19.827608z m0 46.051218H37.096814v-29.421611h49.88882v23.025609h-3.198001z m101.696439-21.746408h-39.655215a19.827608 19.827608 0 0 0-22.386009 21.106808v42.213616c0 9.594004 3.837601 21.106808 22.386009 21.106809h39.655215c18.548407 0 22.386009-11.512804 22.386009-21.106809v-42.213616c0-9.594004-3.837601-21.106808-22.386009-21.106808z m-43.492817 21.106808h44.772018v42.213616h-44.772018z m149.666459-21.106808H255.8401a19.827608 19.827608 0 0 0-22.386009 21.106808v8.954403a19.188007 19.188007 0 0 0 21.746409 20.467208h42.853216v9.594004H249.444097v-8.954403h-19.188007v8.954403c0 9.594004 3.837601 21.106808 22.386009 21.106808h39.015615c18.548407 0 22.386009-11.512804 22.386009-21.106808v-9.594004c0-8.954403-3.837601-20.467208-22.386009-20.467208H249.444097v-8.954403h45.411618v8.314803h18.548407v-8.314803c0-9.594004-3.837601-21.106808-22.386008-21.106808z m69.716427-24.94441h-18.548407v24.94441h-9.594004v17.908807h9.594004v45.411617a19.188007 19.188007 0 0 0 21.746408 21.106809h23.025609v-17.908807h-25.58401v-45.411618h26.223611v-17.908807h-26.863211z m102.97564 24.94441h-39.015615c-18.548407 0-22.386009 11.512804-22.386009 21.106808v42.213616c0 9.594004 3.837601 21.106808 22.386009 21.106809h42.853217v17.908807H422.136165v-8.314804h-19.188008v8.314804c0 9.594004 3.837601 21.106808 22.386009 21.106808h39.015615c14.710806 0 22.386009-7.035603 22.386009-21.106808v-81.229232c0-9.594004-3.837601-21.106808-22.386009-21.106808z m-42.853216 21.106808h45.411617v45.411618h-44.772017v-42.213617z m109.371642-19.827608H511.6802v84.427233h18.548407v-63.960025h26.22361v-17.908807h-25.58401z m95.940038 0h-39.655216c-18.548407 0-22.386009 11.512804-22.386008 21.106808v42.213617c0 9.594004 3.837601 21.106808 22.386008 21.106808h39.655216a19.827608 19.827608 0 0 0 22.386009-21.106808v-8.314803h-19.188008v8.314803h-46.051218V895.44035h63.960025v-30.061212a19.188007 19.188007 0 0 0-21.746408-21.106808z m-39.655216 17.908807h42.213617v12.152405h-46.051218v-12.152405z m208.509682-42.213616h-42.853217c-17.908807 0-22.386009 10.873204-22.386009 19.827607v22.386009c0 8.954403 3.837601 19.827608 22.386009 19.827608h46.051218v23.665209h-49.249219v-7.035603h-17.908807v8.954404c0 8.954403 3.837601 19.827608 21.746408 19.827608h42.853217c18.548407 0 22.386009-10.873204 22.386009-19.827608v-23.665209c0-9.594004-3.837601-20.467208-22.386009-20.467208h-46.690818v-22.386009s0-3.198001 3.837601-3.198001H799.500312v8.314803h18.548408v-8.314803c0-8.954403-3.837601-19.827608-22.386009-19.827608z m106.173641 0h-42.853216a25.58401 25.58401 0 0 0-16.629607 5.116802 18.548407 18.548407 0 0 0-5.756402 14.710805v69.076827c0 8.954403 3.837601 19.827608 22.386009 19.827608h12.152404v11.512805h18.548408v-11.512805h12.152404c18.548407 0 22.386009-10.873204 22.386009-19.827608v-70.356027c0-8.954403-3.837601-19.827608-22.386009-19.827608zM871.13554 895.44035v17.269207h-15.350406v-70.995628s0-3.198001 3.837602-3.198001h46.051218v69.076827h-15.350406V895.44035h-18.548407z m90.183636 17.269207v-90.823236h-18.548408v108.732043h63.960025v-17.269207z m0 0M842.993129 516.157402c0-7.675203-14.071205-26.86321-48.609619-19.827608a159.260462 159.260462 0 0 1-39.015615 5.116802A656.229856 656.229856 0 0 0 831.480325 330.033729c10.873204-40.934416 24.94441-114.488445 0-149.026858a197.636477 197.636477 0 0 0-161.818863-76.75203A295.495315 295.495315 0 0 0 575.640225 116.407245a255.8401 255.8401 0 0 0-49.88882-5.116802 166.296065 166.296065 0 0 0-86.985634 21.746409 248.164897 248.164897 0 0 0-204.032479 7.035603A165.016864 165.016864 0 0 0 179.08807 294.216115a834.678326 834.678326 0 0 0 35.817614 161.179263 511.6802 511.6802 0 0 0 37.096814 95.940037 112.569644 112.569644 0 0 0 58.843223 63.960025 56.284822 56.284822 0 0 0 58.203623-13.431605 67.797626 67.797626 0 0 0 35.817614 21.746409 123.442848 123.442848 0 0 0 55.005622 0 103.61524 103.61524 0 0 0 28.142411-8.954404v15.350406a133.676452 133.676452 0 0 1 0 15.990006 305.089319 305.089319 0 0 0 10.873204 80.589632v3.837601a93.381636 93.381636 0 0 0 23.665209 41.574017 63.960025 63.960025 0 0 0 49.88882 19.188007 120.884447 120.884447 0 0 0 24.944409 0 109.371643 109.371643 0 0 0 74.83323-42.853217A250.723298 250.723298 0 0 0 703.560275 606.980637V594.828232h7.035603a181.006871 181.006871 0 0 0 78.03123-12.792005c16.629606-6.396002 65.239225-31.980012 54.366021-65.878825z m-63.960025 49.249219a136.234853 136.234853 0 0 1-63.960025 12.792005 95.300437 95.300437 0 0 1-23.025609-2.558401c-3.198001 31.980012-10.873204 92.742036-15.350406 118.326046a84.427233 84.427233 0 0 1-77.39163 78.670831 63.960025 63.960025 0 0 1-21.746408 3.837601 71.635228 71.635228 0 0 1-63.960025-51.80762 646.635853 646.635853 0 0 1-12.792005-142.630856 92.742036 92.742036 0 0 1-63.960025 23.66521 103.61524 103.61524 0 0 1-30.700812-3.837602c-10.873204 0-30.061212-10.873204-28.782012-24.94441s23.025609-19.827608 30.700812-21.746408c30.061212-5.756402 31.980012-8.954403 42.213617-21.106808l5.756402-7.035603v-3.837602A90.183635 90.183635 0 0 1 419.577764 511.6802c-7.035603 7.675203-30.061212 32.619613-54.366021 63.960025a51.16802 51.16802 0 0 1-37.736415 21.746408h-12.152405C285.901312 583.955028 255.8401 535.345409 230.89569 447.720175a912.069956 912.069956 0 0 1-33.898813-156.062461 148.387258 148.387258 0 0 1 49.888819-139.432855c63.960025-45.411618 166.935665-12.152405 191.880075 0A145.828857 145.828857 0 0 1 525.751405 127.92005a241.768894 241.768894 0 0 1 49.88882 5.756402 282.70331 282.70331 0 0 1 83.787633-12.792005A187.402873 187.402873 0 0 1 811.013117 191.880075a171.412867 171.412867 0 0 1 0 134.316052 639.60025 639.60025 0 0 1-83.148033 185.484073 106.173641 106.173641 0 0 0 68.437227 0c15.990006 0 24.94441 0 28.142411 8.314803s-26.22361 37.096814-42.853217 45.411618z" fill="#333333" p-id="66239"></path><path d="M681.174266 309.566521h-5.116802c-8.314803 0-15.990006 4.477202-15.350406 9.594004a17.269207 17.269207 0 0 0 15.350406 10.233604 25.58401 25.58401 0 0 0 12.792005-9.594004 12.792005 12.792005 0 0 0 3.837602-8.314803s-5.116802-1.918801-11.512805-1.918801zM475.862586 324.277327s0-5.116802-5.116802-8.314804a54.366021 54.366021 0 0 0-10.873204 0h-5.116802c-7.675203 0-12.792005 0-14.071206 7.035603a11.512804 11.512804 0 0 0 3.198001 7.675203 20.467208 20.467208 0 0 0 14.071206 8.954404 14.710806 14.710806 0 0 0 17.908807-15.350406z" fill="#FFFFFF" p-id="66240"></path><path d="M796.302311 511.6802a106.173641 106.173641 0 0 1-68.437227 0 639.60025 639.60025 0 0 0 83.148033-187.402873 171.412867 171.412867 0 0 0 0-134.316053 187.402873 187.402873 0 0 0-149.026858-69.716427A282.70331 282.70331 0 0 0 575.640225 133.676452 241.768894 241.768894 0 0 0 525.751405 127.92005a145.828857 145.828857 0 0 0-84.427233 24.304809c-27.502811-9.594004-127.92005-42.853217-191.880075 0a148.387258 148.387258 0 0 0-49.888819 139.432855A912.069956 912.069956 0 0 0 230.89569 447.720175c25.58401 86.985634 55.005621 135.595253 84.427233 145.828857h12.152405A51.16802 51.16802 0 0 0 365.211743 575.640225c24.304809-28.782011 47.330418-53.726421 54.366021-63.960025a90.183635 90.183635 0 0 0 38.376015 10.233604v3.837601l-5.756402 7.035603c-10.233604 12.152405-12.152405 15.350406-42.213617 21.106808-7.675203 0-30.700812 7.035603-30.700812 21.746409s17.908807 22.386009 28.782011 24.94441a103.61524 103.61524 0 0 0 30.700812 3.837601 92.742036 92.742036 0 0 0 63.960025-23.665209A646.635853 646.635853 0 0 0 511.6802 723.387883a71.635228 71.635228 0 0 0 63.960025 51.80762 63.960025 63.960025 0 0 0 21.746408-3.837602 84.427233 84.427233 0 0 0 77.391631-78.67083c4.477202-25.58401 12.152405-86.346034 15.350406-118.326047a95.300437 95.300437 0 0 0 28.782011 3.837602 136.234853 136.234853 0 0 0 63.960025-12.792005c16.629606-8.314803 48.609619-28.142411 42.853217-44.772018S812.292317 511.6802 796.302311 511.6802z m-127.92005-374.166146a162.458463 162.458463 0 0 1 132.397252 63.960025c23.665209 30.700812 0 173.331668-80.589632 294.216115l-4.477201-5.756403a132.397252 132.397252 0 0 0 12.152404-93.381636 301.251718 301.251718 0 0 1 0-33.898813 123.442848 123.442848 0 0 1 0-30.061212 255.8401 255.8401 0 0 0 0-38.376015 207.870081 207.870081 0 0 0-46.690818-88.904435 199.555278 199.555278 0 0 0-74.833229-55.645222 227.058089 227.058089 0 0 1 58.843223-11.512804z m42.853217 259.677701a127.92005 127.92005 0 0 1-7.675203 76.75203 144.549656 144.549656 0 0 1-7.035603-14.071205c0-4.477202-5.116802-8.954403-8.954403-17.269207-17.269207-30.061212-56.924422-101.69644-35.817614-127.92005 8.954403-12.792005 29.421611-17.269207 63.960025-12.792005a248.164897 248.164897 0 0 1 0 30.700812 255.8401 255.8401 0 0 0-3.198002 31.980012 169.494066 169.494066 0 0 0-4.477201 33.259213zM351.140537 562.84822c-15.990006 19.188007-26.86321 12.792005-31.340412 12.792005-23.025609-7.675203-49.888819-55.645222-73.554029-133.036852a885.846346 885.846346 0 0 1-32.619613-152.22486A131.757651 131.757651 0 0 1 255.8401 168.214866a211.068082 211.068082 0 0 1 168.214866-3.837602A238.570893 238.570893 0 0 0 370.328545 319.800125a7.675203 7.675203 0 0 0 0 5.756402v5.116802a418.938164 418.938164 0 0 1 0 79.950031 101.056839 101.056839 0 0 0 25.58401 83.787633l8.314803 7.035603c-8.954403 10.233604-30.061212 34.538413-53.086821 61.401624z m58.203623-79.310431a80.589631 80.589631 0 0 1-22.386009-68.437227 408.70456 408.70456 0 0 0 0-83.787633v-6.396002a121.524047 121.524047 0 0 1 70.995628-21.746409 29.421611 29.421611 0 0 1 23.665209 26.223611 178.44847 178.44847 0 0 1-8.954403 127.92005l-5.756403 14.710805v4.477202c0 8.954403-5.756402 17.908807-8.954403 27.502811a63.960025 63.960025 0 0 1-48.609619-20.467208z m92.102436 63.960025v3.198001a10.233604 10.233604 0 0 1 0 5.756402 68.437227 68.437227 0 0 1-60.762024 31.980013 127.92005 127.92005 0 0 1-26.86321 0 38.376015 38.376015 0 0 1-15.990007-12.792005c5.116802 0 10.233604-3.837601 15.350406-7.035603 34.538413-7.035603 39.655215-12.152405 51.807621-26.86321l7.675203-10.233604a5.116802 5.116802 0 0 0 3.198001 0c4.477202-4.477202 7.035603-4.477202 7.675203-4.477202a12.152405 12.152405 0 0 1 6.396002 0 20.467208 20.467208 0 0 1 10.873205 14.071205z m174.610868 8.954403c0 17.908807-12.152405 102.97564-17.269207 133.676453a69.076827 69.076827 0 0 1-63.960025 63.960025 53.086821 53.086821 0 0 1-69.076827-37.736415 784.149906 784.149906 0 0 1-7.035602-157.341662 30.061212 30.061212 0 0 0 0-21.106808A39.655215 39.655215 0 0 0 498.888195 511.6802a31.980012 31.980012 0 0 0-13.431605 0h-7.035603c0-7.675203 5.116802-16.629606 8.314803-26.22361v-4.477202l5.756402-14.071206a201.474079 201.474079 0 0 0 9.594004-141.351655 48.609619 48.609619 0 0 0-59.482823-40.294816 147.108057 147.108057 0 0 0-46.690818 14.710806l-8.314804 4.477202a215.545284 215.545284 0 0 1 47.970019-127.92005 115.767645 115.767645 0 0 1 88.904435-32.619613 199.555278 199.555278 0 0 1 182.925671 137.514054c-36.457214-4.477202-63.960025 0-73.554028 20.467208-26.86321 37.736415 14.710806 113.848844 34.538413 149.666458 4.477202 7.035603 7.035603 12.792005 8.314803 14.710806a127.92005 127.92005 0 0 0 21.106809 33.898813L703.560275 511.6802c-8.314803 0-29.421611 6.396002-27.502811 43.492817z m99.138039-5.116802a127.92005 127.92005 0 0 1-48.609619 10.233604 63.960025 63.960025 0 0 1-31.980013-5.116802c0-23.025609 8.314803-25.58401 17.269207-28.142411h7.035603a121.524047 121.524047 0 0 0 83.148032 3.198002h3.198002a94.660837 94.660837 0 0 1-30.061212 18.548407z" fill="#FFFFFF" p-id="66241"></path><path d="M501.446596 549.416615v-3.198002a20.467208 20.467208 0 0 0-10.873204-14.071205 12.152405 12.152405 0 0 0-6.396003 0l-7.675203 4.477202a5.116802 5.116802 0 0 1-3.198001 0l-7.675203 10.233604c-12.152405 14.710806-17.269207 19.827608-51.80762 26.86321C408.064959 575.640225 402.948157 575.640225 397.831355 575.640225a38.376015 38.376015 0 0 0 14.071206 5.756402 127.92005 127.92005 0 0 0 26.86321 0 68.437227 68.437227 0 0 0 60.762024-31.980012 10.233604 10.233604 0 0 0 1.918801 0zM802.058713 531.507808a121.524047 121.524047 0 0 1-83.148032-3.198002h-7.035603c-8.954403 0-17.908807 5.116802-17.269207 28.142411a63.960025 63.960025 0 0 0 31.980013 5.116802 127.92005 127.92005 0 0 0 48.609619-10.233604 94.660837 94.660837 0 0 0 30.061212-19.827607zM395.912555 495.690194a101.056839 101.056839 0 0 1-25.58401-83.787633 418.938164 418.938164 0 0 0 0-79.950031v-5.116802a7.675203 7.675203 0 0 1 0-5.756403 238.570893 238.570893 0 0 1 53.726421-156.062461A211.068082 211.068082 0 0 0 255.8401 168.214866a131.757651 131.757651 0 0 0-42.213617 123.442848 885.846346 885.846346 0 0 0 32.619613 152.224859C270.550906 521.274204 297.414116 569.244222 319.800125 575.640225c3.837601 0 14.710806 5.116802 30.700812-14.071206s44.132417-50.52842 53.086821-60.122423z" fill="#33698E" p-id="66242"></path><path d="M703.560275 511.6802l-5.756402-7.675203a127.92005 127.92005 0 0 1-21.106809-33.898813s-3.837601-7.675203-8.314803-14.710806c-19.827608-35.817614-63.960025-111.930044-34.538413-149.666459 12.152405-17.908807 37.096814-24.94441 73.554028-20.467208a199.555278 199.555278 0 0 0-181.646471-140.072454 115.767645 115.767645 0 0 0-88.904434 32.619612 215.545284 215.545284 0 0 0-47.970019 127.92005l8.314803-4.477201a147.108057 147.108057 0 0 1 46.690818-14.710806 48.609619 48.609619 0 0 1 59.482824 40.294816 201.474079 201.474079 0 0 1-9.594004 141.351655l-5.756402 14.071205v4.477202c-3.198001 9.594004-6.396002 18.548407-8.314804 26.22361h7.035603A31.980012 31.980012 0 0 1 498.888195 511.6802a39.655215 39.655215 0 0 1 20.467208 24.94441 30.061212 30.061212 0 0 1 0 21.106808 784.149906 784.149906 0 0 0 7.035603 157.341661 53.086821 53.086821 0 0 0 69.076827 37.736415 69.076827 69.076827 0 0 0 63.960025-63.960025c5.116802-30.700812 15.990006-115.767645 17.269206-133.676452-2.558401-37.096814 18.548407-43.492817 26.863211-43.492817z" fill="#33698E" p-id="66243"></path><path d="M665.18426 138.153654a227.058089 227.058089 0 0 0-58.843223 5.756402 199.555278 199.555278 0 0 1 74.833229 55.645222 207.870081 207.870081 0 0 1 46.690818 88.904435 255.8401 255.8401 0 0 1 0 38.376015 123.442848 123.442848 0 0 0 0 30.061211 301.251718 301.251718 0 0 0 0 33.898814 132.397252 132.397252 0 0 1-12.152404 93.381636l4.477201 5.756402c78.03123-120.884447 104.254841-263.515303 80.589632-294.216115a162.458463 162.458463 0 0 0-135.595253-57.564022z" fill="#33698E" p-id="66244"></path><path d="M710.595878 299.332917c-31.980012-4.477202-52.44722 0-63.960025 12.792005-21.106808 28.782011 18.548407 100.417239 35.817614 127.92005 3.837601 8.314803 7.035603 12.792005 8.954403 17.269207a144.549656 144.549656 0 0 0 7.035603 14.071205 127.92005 127.92005 0 0 0 7.035603-76.11243 169.494066 169.494066 0 0 1-1.918801-33.259213 255.8401 255.8401 0 0 1 3.198001-31.980012 248.164897 248.164897 0 0 0 3.837602-30.700812z m-21.746409 20.467208a25.58401 25.58401 0 0 1-10.873204 5.756402 17.269207 17.269207 0 0 1-17.269207-5.756402c0-5.116802 7.035603-7.675203 15.350406-9.594004h5.116802c6.396002 0 11.512804 0 11.512805 4.477202a12.792005 12.792005 0 0 1-3.837602 5.116802zM458.593379 505.284197c0-9.594004 6.396002-18.548407 8.954404-27.50281V473.304185l5.756402-14.710806a178.44847 178.44847 0 0 0 8.954403-127.92005 29.421611 29.421611 0 0 0-23.665209-26.22361 121.524047 121.524047 0 0 0-70.995628 21.746408v6.396003a408.70456 408.70456 0 0 1 0 83.787633 80.589631 80.589631 0 0 0 21.746409 67.158026 63.960025 63.960025 0 0 0 49.249219 21.746408z m-3.837601-191.880075h5.116802a54.366021 54.366021 0 0 1 10.873204 0c5.116802 0 5.756402 6.396002 5.116802 8.314804a14.710806 14.710806 0 0 1-15.990006 12.792005 20.467208 20.467208 0 0 1-14.071206-8.954404 11.512804 11.512804 0 0 1-5.116802-5.756402c1.2792-3.837601 7.035603-6.396002 14.071206-6.396003z" fill="#33698E" p-id="66245"></path></svg>