<?xml version="1.0" standalone="no"?><!DOCTYPE svg PUBLIC "-//W3C//DTD SVG 1.1//EN" "http://www.w3.org/Graphics/SVG/1.1/DTD/svg11.dtd"><svg t="1748450229516" class="icon" viewBox="0 0 1024 1024" version="1.1" xmlns="http://www.w3.org/2000/svg" p-id="56414" xmlns:xlink="http://www.w3.org/1999/xlink" width="200" height="200"><path d="M1009.792 920.416c19.168-31.904 19.168-63.84 0-95.744L595.072 103.744c-19.072-31.872-50.976-44.704-82.912-44.704s-63.776 19.168-82.912 44.704l-134.016 236.032 31.904 19.168a632.064 632.064 0 0 1 242.432 242.432c51.072 89.344 82.944 184.992 89.344 287.136h-95.712c-6.368-82.976-31.904-165.92-76.544-242.528-44.672-89.312-114.848-159.488-204.16-210.56l-31.968-19.072-127.584 216.928 31.872 19.168c82.944 50.976 140.384 133.92 153.12 229.664h-210.56c-6.368 0-12.8-6.4-12.8-6.4s-6.304-6.4 0-12.768l57.504-102.112c-19.168-19.072-44.704-31.904-70.24-38.24L14.4 824.704c-19.168 31.904-19.168 63.84 0 95.744 19.104 31.84 44.64 44.576 82.912 44.576h293.504v-38.24c0-70.176-19.168-134.016-51.04-197.856-25.568-50.976-63.84-89.312-108.448-121.184l44.672-82.976c57.472 44.64 108.512 95.712 146.72 159.52 44.672 76.512 63.84 159.488 63.84 242.432v38.24h248.8V926.72c0-127.584-31.872-255.232-102.048-370.048-51.072-102.144-134.016-185.056-229.76-248.864l95.744-165.856c6.432-6.4 12.8-6.4 12.8-6.4 6.4 0 6.4 0 12.768 6.4l414.752 720.896c6.304 6.304 0 12.768 0 12.768s-6.4 6.4-12.8 6.4h-95.712v76.576h95.712c38.24 6.368 63.776-6.4 82.912-38.24z" fill="#FB4226" p-id="56415"></path></svg>